<svg width="16" height="17" viewBox="0 0 16 17" fill="none" xmlns="http://www.w3.org/2000/svg">
<path fill-rule="evenodd" clip-rule="evenodd" d="M15 0H0V1V16H1V1H15V0Z" fill="#494949"/>
<path fill-rule="evenodd" clip-rule="evenodd" d="M2 1H1V15H2V2H14V1H2Z" fill="#525252"/>
<path fill-rule="evenodd" clip-rule="evenodd" d="M16 17H15H0V16H15V0H16V17Z" fill="#1d1d1e"/>
<path fill-rule="evenodd" clip-rule="evenodd" d="M15 1H14V15H1V16H14H15V1Z" fill="#252525"/>
<rect x="2" y="2" width="12" height="13" fill="#2e2e2e"/>
<path fill-rule="evenodd" clip-rule="evenodd" d="M11 6H4V7H5V8H6V9H7V10H8V9H9V8H10V7H11V6Z" fill="white"/>
</svg>
